<?xml version="1.0" standalone="no"?>
<!DOCTYPE svg PUBLIC "-//W3C//DTD SVG 20010904//EN"
 "http://www.w3.org/TR/2001/REC-SVG-20010904/DTD/svg10.dtd">
<svg version="1.0" xmlns="http://www.w3.org/2000/svg"
 width="12000.000000pt" height="4800.000000pt" viewBox="0 0 12000.000000 4800.000000"
 preserveAspectRatio="xMidYMid meet">

<g transform="translate(0.000000,4800.000000) scale(0.100000,-0.100000)"
fill="#000000" stroke="none">
<path d="M29805 47143 c-149 -5 -519 -34 -687 -53 -825 -94 -1574 -298 -2331
-634 -520 -232 -1187 -593 -1597 -866 -1559 -1040 -2594 -2694 -2930 -4682
-73 -434 -83 -558 -77 -928 3 -179 13 -399 21 -490 148 -1555 805 -2974 2091
-4513 443 -531 920 -1039 1649 -1758 l310 -305 -7109 3 c-3911 2 -7804 4
-8652 6 -849 2 -1543 3 -1544 3 -3 -4 -26 -8162 -22 -8166 3 -3 4256 -21 9451
-42 5196 -20 9690 -41 9987 -47 1017 -19 1697 21 2436 144 935 155 1802 453
2514 863 260 150 981 661 1354 960 1298 1043 1933 2143 2121 3676 61 496 64
1136 9 1676 -183 1804 -1022 3628 -2455 5340 -313 374 -592 676 -946 1025
-387 383 -598 572 -1098 987 l-45 37 4608 1 4607 0 0 -7315 0 -7315 4032 0
4031 0 -6 1163 c-20 3495 -59 13399 -52 13405 3 4 2059 19 4568 33 2509 15
4563 27 4565 28 1 1 2 1749 2 3886 l0 3885 -14362 -2 c-7900 -1 -14399 -3
-14443 -5z m27895 -3878 c0 -2372 -3 -2976 -12 -2979 -7 -3 -2064 -16 -4571
-29 -2507 -14 -4560 -27 -4562 -29 -3 -2 9 -2994 25 -6648 16 -3655 30 -6930
30 -7277 l0 -633 -3115 0 -3115 0 0 7310 0 7310 -5436 0 -5436 0 -101 -21
c-333 -67 -536 -275 -554 -564 -16 -280 145 -526 537 -818 860 -641 1725
-1482 2431 -2362 1455 -1813 2180 -3742 2101 -5581 -31 -700 -132 -1215 -338
-1724 -307 -756 -821 -1368 -1724 -2052 -380 -288 -870 -625 -1065 -734 -813
-451 -1795 -723 -2955 -818 -435 -36 -580 -38 -2265 -26 -1573 11 -16163 70
-17224 70 l-513 0 6 2583 c3 1420 9 2849 12 3176 l6 594 8415 -7 8414 -7 107
63 c181 107 315 260 392 445 113 270 84 603 -71 829 -19 27 -191 203 -384 390
-678 660 -1182 1188 -1600 1674 -1272 1481 -1903 2794 -2025 4215 -18 217 -24
581 -11 705 78 725 281 1477 570 2108 498 1087 1284 1969 2286 2565 325 193
865 476 1169 612 871 390 1685 579 2692 624 93 4 6405 9 14027 9 l13857 2 0
-2975z"/>
<path d="M61467 47133 c-2 -10 -1497 -5045 -3321 -11190 -1824 -6144 -3316
-11176 -3316 -11182 0 -8 1161 -10 4231 -9 l4231 3 694 1734 c382 954 698
1739 703 1744 5 5 1319 5 3167 0 l3158 -8 493 -1405 c271 -773 545 -1555 609
-1738 l117 -332 9001 2 9001 3 5 2700 5 2699 167 -214 c1902 -2449 4022 -4127
6080 -4814 584 -195 1043 -289 1733 -358 91 -9 1651 -13 6468 -15 l6347 -3 0
4115 0 4115 -4867 3 c-3628 2 -4900 6 -4993 15 -390 37 -613 71 -827 127 -318
83 -537 210 -601 347 -12 26 -22 51 -21 55 0 5 156 85 347 180 479 237 775
409 1095 635 845 599 1467 1389 1864 2368 70 172 190 532 242 722 207 762 303
1614 288 2548 -8 469 -28 726 -87 1143 -235 1634 -953 3045 -2080 4085 -695
642 -1561 1148 -2520 1473 -666 226 -1368 370 -2120 433 -466 40 -334 40
-8004 2 -4043 -20 -7456 -39 -7583 -42 l-233 -6 -2 -11142 -3 -11142 -252 322
-252 322 -85 263 c-350 1091 -1887 6044 -4394 14169 -854 2766 -2093 6784
-2184 7082 l-63 208 -6116 0 c-5817 0 -6117 -1 -6122 -17z m11567 -910 c15
-52 1457 -4730 2088 -6773 2099 -6802 3733 -12075 4181 -13492 l94 -298 -3257
0 -3258 0 -46 133 c-26 72 -300 854 -609 1737 l-563 1605 -1904 6 c-1048 3
-2757 7 -3799 8 l-1894 3 -696 -1741 -696 -1741 -3314 0 c-2646 0 -3312 3
-3308 13 2 6 1373 4624 3047 10261 1673 5637 3046 10260 3051 10273 l9 23
5434 0 c5167 0 5435 -1 5440 -17z m23251 7 c2351 -106 4208 -1027 5308 -2635
760 -1111 1126 -2542 1058 -4139 -47 -1112 -238 -1968 -606 -2721 -219 -449
-467 -797 -815 -1146 -462 -463 -878 -738 -1785 -1178 -170 -83 -377 -186
-460 -228 l-150 -78 -7 -65 c-17 -160 -25 -397 -17 -509 17 -225 88 -436 209
-617 76 -114 242 -275 374 -363 416 -277 1007 -423 1901 -471 110 -6 1873 -10
4508 -10 l4327 0 0 -3200 0 -3200 -5932 3 c-6496 3 -5948 -2 -6343 57 -1280
192 -2619 837 -3947 1902 -1107 888 -2217 2078 -3175 3404 -285 394 -493 717
-938 1454 -241 399 -444 732 -452 740 -11 12 -13 -598 -13 -3773 l0 -3787
-3740 0 -3740 0 0 10245 c0 8188 3 10246 13 10250 10 3 12475 70 13737 74 256
0 564 -4 685 -9z"/>
<path d="M67747 41580 c-15 -38 -2358 -7692 -2355 -7695 4 -3 4770 -27 4772
-23 2 2 -2325 7466 -2395 7683 -10 32 -19 44 -22 35z m592 -4932 c316 -1014
577 -1849 579 -1855 5 -14 -837 -16 -1799 -4 l-497 6 567 1848 c311 1016 568
1847 571 1847 3 0 264 -829 579 -1842z"/>
<path d="M89324 41281 c-2 -2 -4 -807 -4 -1788 l0 -1783 2424 0 c2122 0 2440
2 2543 15 941 123 1595 560 1812 1212 51 152 71 273 78 459 37 1062 -626 1772
-1747 1874 -110 10 -5096 21 -5106 11z m5151 -933 c249 -47 429 -126 554 -244
91 -86 131 -144 172 -249 61 -156 84 -377 55 -533 -55 -306 -338 -527 -821
-642 -264 -63 -146 -60 -2264 -60 l-1931 0 0 875 0 875 2073 -3 c1899 -2 2080
-4 2162 -19z"/>
<path d="M8922 23208 c4 -18 6898 -22288 6902 -22294 1 -2 7465 -65 7542 -64
l30 0 1120 3539 c615 1947 1121 3538 1123 3535 2 -2 541 -1580 1196 -3506
l1192 -3503 3653 0 3653 0 3169 11125 c1742 6119 3172 11140 3177 11158 l9 32
-4206 -2 -4206 -3 -781 -2522 c-429 -1387 -783 -2524 -786 -2527 -2 -3 -374
1132 -825 2522 l-821 2527 -4376 3 -4375 2 -29 -92 c-16 -51 -359 -1178 -763
-2505 -404 -1326 -737 -2409 -740 -2406 -3 2 -383 1128 -845 2501 l-841 2497
-4588 3 -4588 2 4 -22z m9702 -4426 c654 -1945 1192 -3542 1195 -3549 3 -6
493 1584 1087 3535 l1082 3547 3704 3 3704 2 1164 -3585 c641 -1971 1168
-3581 1171 -3577 4 4 505 1616 1113 3581 609 1966 1108 3576 1110 3578 1 2
1470 2 3263 1 l3260 -3 -2917 -10245 -2918 -10245 -2978 -3 -2979 -2 -1534
4507 c-843 2480 -1537 4514 -1540 4521 -4 7 -654 -2031 -1444 -4529 -790
-2498 -1439 -4544 -1442 -4547 -6 -6 -6216 45 -6222 52 -7 7 -6343 20468
-6343 20483 0 11 698 13 3638 13 l3637 0 1189 -3538z"/>
<path d="M64480 12070 l0 -11160 4650 0 4650 0 0 2620 c0 1441 3 2620 8 2619
4 0 43 -48 87 -107 477 -636 1125 -1374 1741 -1982 1462 -1441 2959 -2402
4474 -2871 440 -136 878 -225 1405 -286 141 -16 638 -17 8045 -23 4342 -3
7900 -8 7906 -12 16 -11 742 9 999 27 1358 94 2501 402 3460 930 641 353 1384
1024 1916 1730 795 1055 1295 2325 1474 3748 19 153 22 553 5 752 -105 1252
-676 2658 -1726 4245 -688 1041 -1629 2205 -2483 3073 l-204 207 5092 0 5093
0 -6 403 c-3 221 -8 1451 -11 2732 -3 1282 -8 2822 -11 3423 l-7 1092 -6381
-3 c-4938 -2 -6414 -6 -6526 -15 -80 -7 -237 -22 -350 -33 -1253 -124 -2360
-486 -3525 -1154 -1874 -1074 -3081 -2978 -3365 -5310 -20 -165 -22 -211 -17
-545 5 -368 17 -532 57 -815 212 -1473 912 -2857 2211 -4365 399 -464 709
-792 1341 -1421 l509 -506 -678 -7 c-373 -4 -2570 -20 -4883 -37 -4435 -32
-4397 -32 -4735 11 -580 74 -1019 241 -1266 480 -40 39 -70 72 -68 74 2 2 139
72 304 155 775 389 1285 740 1745 1201 764 765 1270 1754 1519 2971 203 996
238 2229 90 3229 -343 2322 -1616 4128 -3619 5139 -350 177 -613 288 -976 411
-786 267 -1576 412 -2504 460 -160 8 -13635 80 -15047 80 l-393 0 0 -11160z
m8575 10210 c3874 -18 6589 -34 6750 -40 2243 -89 4063 -944 5185 -2435 640
-850 1041 -1924 1165 -3115 76 -735 50 -1591 -71 -2320 -253 -1530 -901 -2603
-2026 -3358 -268 -179 -586 -355 -1058 -582 -239 -116 -387 -190 -627 -314 -1
-1 -7 -80 -14 -177 -20 -280 9 -438 121 -664 308 -622 1080 -1034 2170 -1160
352 -40 340 -40 5570 -1 2742 21 5028 42 5080 47 321 31 536 112 681 258 122
123 174 250 174 426 0 207 -73 364 -293 628 -37 44 -353 367 -703 716 -769
768 -1057 1076 -1463 1561 -1040 1242 -1613 2352 -1830 3540 -59 325 -80 567
-80 945 -1 300 1 332 27 510 115 778 318 1439 641 2085 299 596 642 1068 1118
1536 471 462 920 775 1618 1124 931 466 1839 718 2880 800 362 28 753 30 6316
30 l5742 0 6 -1062 c3 -585 9 -1897 12 -2915 l6 -1853 -5013 -2 -5014 -3 -80
-22 c-102 -29 -224 -89 -297 -147 -70 -56 -144 -158 -176 -245 -30 -81 -41
-230 -22 -323 15 -82 77 -213 139 -297 62 -83 207 -225 332 -323 288 -228
1017 -1013 1595 -1719 1520 -1855 2472 -3608 2719 -5004 44 -248 57 -384 62
-640 4 -196 2 -277 -11 -375 -71 -547 -209 -1119 -386 -1600 -93 -254 -165
-421 -295 -685 -212 -430 -445 -796 -739 -1160 -407 -504 -1041 -1066 -1474
-1304 -875 -482 -1853 -744 -3117 -837 -186 -13 -1126 -15 -8345 -14 -5266 0
-8186 4 -8280 11 -1439 98 -2915 746 -4390 1926 -1126 901 -2255 2128 -3213
3490 -219 311 -376 561 -818 1300 l-454 757 -5 -3724 c-3 -2049 -6 -3726 -8
-3727 -1 -2 -1683 -3 -3737 -3 l-3735 0 0 10243 c0 5634 3 10246 6 10250 3 3
270 4 593 1 322 -3 3502 -18 7066 -34z"/>
<path d="M72860 15651 l0 -1791 2383 0 c2012 0 2403 2 2517 15 926 99 1607
519 1850 1141 84 214 116 423 107 684 -18 483 -166 860 -457 1163 -318 332
-777 527 -1335 566 -72 5 -1229 10 -2597 11 l-2468 2 0 -1791z m5105 858 c174
-22 359 -82 493 -161 31 -18 91 -67 133 -109 122 -121 184 -267 210 -494 28
-251 -27 -439 -172 -586 -190 -193 -562 -337 -978 -379 -68 -6 -751 -10 -1987
-10 l-1884 0 0 881 0 881 2053 -7 c1242 -4 2084 -10 2132 -16z"/>
<path d="M44855 23208 c-3 -7 -1476 -5001 -3275 -11098 -1799 -6097 -3281
-11120 -3294 -11163 l-24 -77 4236 2 4236 3 670 1718 671 1719 3160 -7 c1738
-4 3163 -10 3166 -14 3 -3 271 -751 594 -1661 323 -910 596 -1679 607 -1707
l19 -53 4205 0 c4000 0 4205 1 4200 18 -17 55 -6909 22245 -6922 22285 l-16
47 -6114 0 c-4883 0 -6116 -3 -6119 -12z m11565 -920 c7 -17 6325 -20353 6366
-20491 5 -16 -153 -17 -3258 -15 l-3262 3 -608 1705 c-333 938 -608 1708 -610
1712 -2 3 -1555 9 -3453 12 -1897 3 -3605 9 -3795 12 l-346 6 -674 -1726 -674
-1726 -3308 0 c-1977 0 -3308 4 -3308 9 0 5 1361 4622 3025 10261 1664 5638
3025 10254 3025 10256 0 2 2446 4 5435 4 l5435 0 10 -22z"/>
<path d="M49961 13828 c-646 -2108 -1176 -3842 -1179 -3855 l-4 -23 478 0
c264 0 1335 -5 2382 -11 1047 -6 1906 -9 1908 -6 6 5 -2394 7707 -2405 7719
-3 4 -534 -1717 -1180 -3824z m1769 -1123 c314 -1006 573 -1836 576 -1844 4
-12 -159 -13 -1143 -7 -631 4 -1149 9 -1151 10 -1 2 253 837 565 1855 386
1259 570 1846 575 1834 5 -10 265 -841 578 -1848z"/>
</g>
</svg>
